<svg width="64" height="53" viewBox="0 0 64 53" fill="none" xmlns="http://www.w3.org/2000/svg">
<path d="M35.3096 1V16.4336C35.3096 25.6602 37.549 33.3281 42.1035 39.3584C46.5596 45.2955 53.1591 49.1495 61.793 50.9785L63 51.2344V38.3027L62.2344 38.1191C58.669 37.2609 55.863 35.7202 53.7637 33.5312L53.3555 33.0918C51.6329 31.168 50.4739 28.9736 49.8721 26.4961H59.6201V1H35.3096ZM1 1V16.4336C1 25.6602 3.23939 33.3281 7.79395 39.3584C12.2525 45.2987 18.9108 49.1506 27.6543 50.9785L28.8594 51.2305V38.2979L28.0869 38.1172C24.4048 37.2569 21.548 35.7144 19.4541 33.5312C17.6067 31.508 16.3231 29.1676 15.6006 26.4961H25.4785V1H1Z" stroke="#754595" stroke-opacity="0.4" stroke-width="2"/>
</svg>
